<?xml version="1.0" encoding="utf-8"?>
<?xml-stylesheet type="text/xsl" href="rss1.xsl"?>
<rss version="2.0" xmlns:atom="http://www.w3.org/2005/Atom" xmlns:content="http://purl.org/rss/1.0/modules/content/" xmlns:dc="http://purl.org/dc/elements/1.1/" xmlns:media="http://search.yahoo.com/mrss/">
<channel>
 <title>Getty</title>
 <link>http://www.gettyimg.com/</link>
 <atom:link href="http://www.gettyimg.com/" rel="self" type="application/rss+xml" />

 
                <item>
                <title><![CDATA[【Unreleased/Unofficial (lossy)】MP3 - ARIANA GRANDE - ETERNALLY LEAK]]></title>
                <link><![CDATA[https://sharemania.us/threads/ariana-grande-eternally-leak.228617/]]></link>
                <description><![CDATA[<article>
<blockquote class="messageText SelectQuoteContainer ugc baseHtml">
<div style="text-align: center">Don't post anywhere because of ariana, she's watching us<br>
<div class="bbCodeBlock bbCodeVfcHH HiddenContent">
<div class="attribution type">Hidden Content:</div>
<blockquote>You must either reply or click 'Like' to see the hidden information contained here.</blockquote>
</div>MY UNRELEASED ALBUM 4.1 IS GETTING NEW SONGS! MAYBE IN 3 WEEKS TO GET MORE SONGS AND VERSIONS BUT THE 4.0 IS ALREADY GOOD​</div>
<div class="messageTextEndMarker">&nbsp;</div>
</blockquote>
</article>]]></description>
                <author><![CDATA[02020203]]></author>
                </item>

                
                <item>
                <title><![CDATA[【Albums (lossy)】MP3 - Matthew Perry - Friends, Lovers, and the Big Terrible Thing Audiobook]]></title>
                <link><![CDATA[https://sharemania.us/threads/matthew-perry-friends-lovers-and-the-big-terrible-thing-audiobook.228618/]]></link>
                <description><![CDATA[<article>
<blockquote class="messageText SelectQuoteContainer ugc baseHtml">
<div style="text-align: center"><img src="https://i.ibb.co/ZKz8rJJ/81-Js8wlvn-DL.jpg" class="bbCodeImage LbImage" alt="[​IMG]" data-url="https://i.ibb.co/ZKz8rJJ/81-Js8wlvn-DL.jpg" style=""> <br>
<br>
<br>
<br>
<span style="font-size: 12px"><i>Friends, Lovers, and the Big Terrible Thing</i>, written and narrated by <b>Matthew Perry</b> </span><br>
<br>
<br>
<br>
<div class="bbCodeBlock bbCodeQuote">
<aside>
<blockquote class="quoteContainer"><div class="quote">In an extraordinary story that only he could tell, Matthew Perry takes readers onto the soundstage of the most successful sitcom of all time while opening up about his private struggles with addiction. <br>
Candid, self-aware, and told with his trademark humor, Perry vividly details his lifelong battle with the disease and what fueled it despite seemingly having it all. <br>
<i>Friends, Lovers, and the Big Terrible Thing</i> is an unforgettable memoir that shares the most intimate details of the love Perry lost, his darkest days, and his greatest friends. <br>
Unflinchingly honest, moving, and hilarious: this is the book fans have been waiting for.</div><div class="quoteExpand">Click to expand...</div></blockquote>
</aside>
</div><br>
<span style="font-size: 12px"><b>Specifications:</b><br>
64 kbps, 8 h 49 mins, MP3 chapterized, Nov 1, 2022. <br>
Tags: Nonfiction, Memoir, Biography, Audiobook, Biography, Memoir, Autobiography<br>
<br>
<br>
</span><br>
<img src="https://i.ibb.co/k9p7HnX/41b-Zz-DZ5u-EL-SL10-UR1600-800-CR200-50-1200-630-CLa-1200-630-41b-Zz-DZ5u-EL-jpg-0-0-1200-630-82-82.jpg" class="bbCodeImage LbImage" alt="[​IMG]" data-url="https://i.ibb.co/k9p7HnX/41b-Zz-DZ5u-EL-SL10-UR1600-800-CR200-50-1200-630-CLa-1200-630-41b-Zz-DZ5u-EL-jpg-0-0-1200-630-82-82.jpg" style=""><br>
<br>
<div class="bbCodeBlock bbCodeVfcHH HiddenContent">
<div class="attribution type">Hidden Content:</div>
<blockquote>You must either reply or click 'Like' to see the hidden information contained here.</blockquote>
</div></div>
<div class="messageTextEndMarker">&nbsp;</div>
</blockquote>
</article>]]></description>
                <author><![CDATA[artlover]]></author>
                </item>

                
                <item>
                <title><![CDATA[【HD Live Performances】FEED - Pitbull, Vikina, Omar Courtz, Lil Jon - Take a Shot/Me Pone Mal/Jumpin - Latin American Music Awards (2023) 1080i BACKHAUL TrollHD]]></title>
                <link><![CDATA[https://sharemania.us/threads/pitbull-vikina-omar-courtz-lil-jon-take-a-shot-me-pone-mal-jumpin-latin-american-music-awards-2023-1080i-backhaul-trollhd.228616/]]></link>
                <description><![CDATA[<article>
<blockquote class="messageText SelectQuoteContainer ugc baseHtml">
<img src="https://images2.imgbox.com/d1/ec/WLXzmnQE_o.jpg" class="bbCodeImage LbImage" alt="[​IMG]" data-url="https://images2.imgbox.com/d1/ec/WLXzmnQE_o.jpg" style=""> <br>
<br>
<div class="bbCodeBlock bbCodeCode">
<div class="type">Code:</div>
<pre>General
Unique ID                      : 293802638435122833855281390640101919981 (0xDD085474FEFC9E35CD351755C2010CED)
Format                         : Matroska
Format version                 : Version 4
File size                      : 1.33 GiB
Duration                       : 7 min 14 s
Overall bit rate mode          : Constant
Overall bit rate               : 26.3 Mb/s
Encoded date                   : UTC 2023-09-16 20:35:51
Writing application            : mkvmerge v30.0.0 ('Interstellar') 64-bit
Writing library                : libebml v1.3.6 + libmatroska v1.4.9

Video
ID                             : 1
Format                         : AVC
Format/Info                    : Advanced Video Codec
Format profile                 : High@L4.1
Format settings                : CABAC / 3 Ref Frames
Format settings, CABAC         : Yes
Format settings, Reference fra : 3 frames
Format settings, GOP           : M=1, N=15
Codec ID                       : V_MPEG4/ISO/AVC
Duration                       : 7 min 14 s
Bit rate mode                  : Constant
Bit rate                       : 26.0 Mb/s
Nominal bit rate               : 27.9 Mb/s
Width                          : 1 920 pixels
Height                         : 1 080 pixels
Display aspect ratio           : 16:9
Frame rate mode                : Variable
Frame rate                     : 59.940 (60000/1001) FPS
Original frame rate            : 29.970 (30000/1001) FPS
Color space                    : YUV
Chroma subsampling             : 4:2:0
Bit depth                      : 8 bits
Scan type                      : Interlaced
Scan type, store method        : Separated fields
Scan order                     : Top Field First
Bits/(Pixel*Frame)             : 0.210
Stream size                    : 1.32 GiB (99%)
Default                        : Yes
Forced                         : No
Color range                    : Limited
Color primaries                : BT.709
Transfer characteristics       : BT.709
Matrix coefficients            : BT.709

Audio
ID                             : 2
Format                         : MPEG Audio
Format version                 : Version 1
Format profile                 : Layer 2
Codec ID                       : A_MPEG/L2
Codec ID/Hint                  : MP2
Duration                       : 7 min 14 s
Bit rate mode                  : Constant
Bit rate                       : 256 kb/s
Channel(s)                     : 2 channels
Sampling rate                  : 48.0 kHz
Frame rate                     : 41.667 FPS (1152 SPF)
Compression mode               : Lossy
Delay relative to video        : 14 ms
Stream size                    : 13.3 MiB (1%)
Language                       : Spanish
Default                        : Yes
Forced                         : No

</pre>
</div>
<div class="bbCodeBlock bbCodeVfcHH HiddenContent">
<div class="attribution type">Hidden Content:</div>
<blockquote>You must either reply or click 'Like' to see the hidden information contained here.</blockquote>
</div><span style="color: rgb(191, 191, 191)">Cutted with:</span><br>
<b>MKVToolNix GUI<br>
<br>
<img src="styles/default/xenforo/smilies/super_man-48.png" class="mceSmilie" alt=":super:" title="Super Man    :super:"><img src="styles/default/xenforo/smilies/super_man-48.png" class="mceSmilie" alt=":super:" title="Super Man    :super:"><img src="styles/default/xenforo/smilies/super_man-48.png" class="mceSmilie" alt=":super:" title="Super Man    :super:"></b>
<div class="messageTextEndMarker">&nbsp;</div>
</blockquote>
</article>]]></description>
                <author><![CDATA[Dream66]]></author>
                </item>

                </channel></rss>